<svg xmlns="http://www.w3.org/2000/svg" xmlns:xlink="http://www.w3.org/1999/xlink" xmlns:inkscape="http://www.inkscape.org/namespaces/inkscape" version="1.1" width="297" height="176" viewBox="0 0 297 176">
<defs>
<clipPath id="clip_1">
<path transform="matrix(1.00006,0,0,-1.00005,143.83649,89.36787)" d="M21.26012 0C21.26012 39.13928-10.46764 70.86703-49.60692 70.86703-88.74622 70.86703-120.47397 39.13928-120.47397 0-120.47397-39.13928-88.74622-70.86703-49.60692-70.86703-10.46764-70.86703 21.26012-39.13928 21.26012 0ZM-49.60692 0"/>
</clipPath>
<clipPath id="clip_2">
<path transform="matrix(1.00006,0,0,-1.00005,143.83649,89.36787)" d="M120.47397 0C120.47397 39.13928 88.74622 70.86703 49.60692 70.86703 10.46764 70.86703-21.26012 39.13928-21.26012 0-21.26012-39.13928 10.46764-70.86703 49.60692-70.86703 88.74622-70.86703 120.47397-39.13928 120.47397 0ZM49.60692 0"/>
</clipPath>
<clipPath id="clip_3">
<path transform="matrix(1.00006,0,0,-1.00005,143.83649,89.36787)" d="M21.26012 0C21.26012 39.13928-10.46764 70.86703-49.60692 70.86703-88.74622 70.86703-120.47397 39.13928-120.47397 0-120.47397-39.13928-88.74622-70.86703-49.60692-70.86703-10.46764-70.86703 21.26012-39.13928 21.26012 0ZM-49.60692 0"/>
</clipPath>
<g id="pattern_tile_4">
<path transform="matrix(1,0,0,-1,-153,732)" stroke-width=".3985" stroke-linecap="butt" stroke-miterlimit="10" stroke-linejoin="miter" fill="none" stroke="#000000" d="M0 0 3.08846 3.08846"/>
</g>
<pattern id="pattern_4" patternUnits="userSpaceOnUse" patternContentUnits="userSpaceOnUse" x="0" y="0" width="2.98883" height="2.98883">
<clipPath id="clip_5">
<path d="M -.99628 -.99628 L 3.9851 -.99628 L 3.9851 3.9851 L -.99628 3.9851 Z"/>
</clipPath>
<g clip-path="url(#clip_5)">
<g transform="matrix(1,0,0,-1,153,732)">
<use x="0" y="0" xlink:href="#pattern_tile_4"/>
<use x="0" y="-2.98883" xlink:href="#pattern_tile_4"/>
<use x="-2.98883" y="0" xlink:href="#pattern_tile_4"/>
<use x="-2.98883" y="-2.98883" xlink:href="#pattern_tile_4"/>
</g>
</g>
</pattern>
<path id="font_6_1" d="M.1789856 .114868167C.13899231 .047973634 .099990848 .033981325 .055999757 .0309906 .04399109 .02999878 .034988405 .02999878 .034988405 .010986328 .034988405 .004989624 .039993287 0 .04798889 0 .07499695 0 .10598755 .0029907227 .13398743 .0029907227 .16699219 .0029907227 .20199585 0 .23399353 0 .23999024 0 .25299073 0 .25299073 .018997193 .25299073 .02999878 .24398804 .0309906 .23699951 .0309906 .21398926 .032989503 .18998719 .04096985 .18998719 .06593323 .18998719 .077926639 .19599915 .088897708 .20399475 .102890018L.27999879 .23068238H.5309906C.5329895 .2097168 .5469971 .07392883 .5469971 .063949588 .5469971 .033981325 .49499513 .0309906 .47499085 .0309906 .46099855 .0309906 .45098878 .0309906 .45098878 .010986328 .45098878 0 .46299745 0 .46499635 0 .5059967 0 .548996 .0029907227 .58999636 .0029907227 .61499026 .0029907227 .6779938 0 .7029877 0 .70899966 0 .72099307 0 .72099307 .019989014 .72099307 .0309906 .71099856 .0309906 .69799807 .0309906 .6359863 .0309906 .6359863 .037979127 .6329956 .06694031L.57199099 .691803C.56999209 .71180728 .56999209 .7158203 .5529938 .7158203 .5369873 .7158203 .5329895 .7088165 .5269928 .69880679L.1789856 .114868167M.29899598 .26168824 .49598695 .5917816 .5279999 .26168824H.29899598Z"/>
<path id="font_6_2" d="M.1599884 .07795715C.1499939 .038986207 .147995 .0309906 .068984989 .0309906 .051986696 .0309906 .041992189 .0309906 .041992189 .010986328 .041992189 0 .050994874 0 .068984989 0H.42599488C.58399966 0 .70199587 .11791992 .70199587 .21585083 .70199587 .28778077 .6439972 .3457489 .5469971 .35673524 .651001 .37573243 .7559967 .44970704 .7559967 .5446625 .7559967 .6186218 .6899872 .6826172 .56999209 .6826172H.23399353C.21499634 .6826172 .20498657 .6826172 .20498657 .6626129 .20498657 .6516113 .21398926 .6516113 .23298645 .6516113 .23498535 .6516113 .2539978 .6516113 .2709961 .6496124 .2889862 .6476135 .2979889 .64660647 .2979889 .6336212 .2979889 .6296234 .29699708 .62661746 .2939911 .614624L.1599884 .07795715M.31098939 .36573792 .37298585 .6136322C.38198854 .64860537 .38398744 .6516113 .4269867 .6516113H.55599978C.6439972 .6516113 .6649933 .5926361 .6649933 .5486603 .6649933 .46069337 .57899478 .36573792 .45700074 .36573792H.31098939M.2659912 .0309906C.2519989 .0309906 .25 .0309906 .24398804 .03199768 .23399353 .032989503 .23098755 .033996583 .23098755 .04197693 .23098755 .04498291 .23098755 .04698181 .23599243 .064971927L.30499269 .34375H.49398805C.58999636 .34375 .60899356 .2698059 .60899356 .22683716 .60899356 .12791443 .519989 .0309906 .4019928 .0309906H.2659912Z"/>
<path id="font_7_1" d="M.6769867 .16200257H.6519928C.6469879 .13600159 .6429901 .11299133 .6339874 .08898926 .6289978 .07299805 .6259918 .06498718 .56799319 .06498718H.48799134C.5009918 .1210022 .5319977 .16900635 .57699587 .23501587 .6239929 .306015 .6649933 .37503053 .6649933 .45404054 .6649933 .59306338 .5299988 .7050781 .36099244 .7050781 .18899536 .7050781 .055999757 .5910492 .055999757 .45404054 .055999757 .37503053 .09700012 .306015 .14399719 .23501587 .18798828 .16900635 .21998596 .1210022 .23298645 .06498718H.15299988C.09498596 .06498718 .09199524 .07299805 .08699036 .08799744 .07899475 .11099243 .07398987 .13700867 .068984989 .16200257H.04399109L.07699585 0H.23699951C.25898744 0 .2619934 0 .2619934 .020996094 .2619934 .09098816 .23098755 .17900086 .20799256 .24301148 .18699646 .3010254 .15899658 .3800354 .15899658 .45503236 .15899658 .6150665 .2689972 .68307498 .3600006 .68307498 .45599366 .68307498 .56199648 .61105349 .56199648 .45503236 .56199648 .3800354 .5349884 .3040161 .5059967 .22201538 .4909973 .18000794 .45899964 .08999634 .45899964 .020996094 .45899964 0 .46199037 0 .4850006 0H.6439972L.6769867 .16200257Z"/>
</defs>
<path transform="matrix(1.00006,0,0,-1.00005,143.83649,89.36787)" d="M120.47397 0C120.47397 39.13928 88.74622 70.86703 49.60692 70.86703 10.46764 70.86703-21.26012 39.13928-21.26012 0-21.26012-39.13928 10.46764-70.86703 49.60692-70.86703 88.74622-70.86703 120.47397-39.13928 120.47397 0ZM49.60692 0" fill="#d9d9d9"/>
<g clip-path="url(#clip_1)">
<g clip-path="url(#clip_2)">
<g clip-path="url(#clip_3)">
<rect transform="matrix(1,0,0,-1,-153,732)" fill="url(#pattern_4)" x="176.35529" y="571.7616" width="141.74262" height="141.74109"/>
</g>
</g>
</g>
<path transform="matrix(1.00006,0,0,-1.00005,143.83649,89.36787)" stroke-width=".3985" stroke-linecap="butt" stroke-miterlimit="10" stroke-linejoin="miter" fill="none" stroke="#000000" d="M21.26012 0C21.26012 39.13928-10.46764 70.86703-49.60692 70.86703-88.74622 70.86703-120.47397 39.13928-120.47397 0-120.47397-39.13928-88.74622-70.86703-49.60692-70.86703-10.46764-70.86703 21.26012-39.13928 21.26012 0ZM-49.60692 0"/>
<use data-text="A" xlink:href="#font_6_1" transform="matrix(9.963197,0,0,-9.963098,90.490299,92.77203)"/>
<path transform="matrix(1.00006,0,0,-1.00005,143.83649,89.36787)" stroke-width=".3985" stroke-linecap="butt" stroke-miterlimit="10" stroke-linejoin="miter" fill="none" stroke="#000000" d="M120.47397 0C120.47397 39.13928 88.74622 70.86703 49.60692 70.86703 10.46764 70.86703-21.26012 39.13928-21.26012 0-21.26012-39.13928 10.46764-70.86703 49.60692-70.86703 88.74622-70.86703 120.47397-39.13928 120.47397 0ZM49.60692 0"/>
<use data-text="B" xlink:href="#font_6_2" transform="matrix(9.963197,0,0,-9.963098,189.41822,92.77203)"/>
<path transform="matrix(1.00006,0,0,-1.00005,143.83649,89.36787)" stroke-width=".3985" stroke-linecap="butt" stroke-miterlimit="10" stroke-linejoin="miter" fill="none" stroke="#000000" d="M-141.73404-85.04042V85.04042H141.73404V-85.04042ZM141.73404 85.04042"/>
<use data-text="&#x2126;" xlink:href="#font_7_1" transform="matrix(9.963197,0,0,-9.963098,289.09919,7.727791)"/>
</svg>
