<svg xmlns="http://www.w3.org/2000/svg" xmlns:xlink="http://www.w3.org/1999/xlink" xmlns:inkscape="http://www.inkscape.org/namespaces/inkscape" version="1.1" width="212" height="193" viewBox="0 0 212 193">
<defs>
<clipPath id="clip_1">
<path transform="matrix(1.00002,0,0,-1.00002,87.13637,89.36455)" d="M-85.04042-85.04042V85.04042H-14.17339V-85.04042ZM-14.17339 85.04042"/>
</clipPath>
<clipPath id="clip_2">
<path transform="matrix(1.00002,0,0,-1.00002,87.13637,89.36455)" d="M-14.17339-85.04042V85.04042H113.38724V-85.04042ZM113.38724 85.04042"/>
</clipPath>
<clipPath id="clip_3">
<path transform="matrix(1.00002,0,0,-1.00002,87.13637,89.36455)" d="M56.69362 0C56.69362 31.31142 31.31142 56.69362 0 56.69362-31.31142 56.69362-56.69362 31.31142-56.69362 0-56.69362-31.31142-31.31142-56.69362 0-56.69362 31.31142-56.69362 56.69362-31.31142 56.69362 0ZM0 0"/>
</clipPath>
<g id="pattern_tile_4">
<path transform="matrix(1,0,0,-1,-153,732)" stroke-width=".3985" stroke-linecap="butt" stroke-miterlimit="10" stroke-linejoin="miter" fill="none" stroke="#000000" d="M0 0 3.08846 3.08846"/>
</g>
<pattern id="pattern_4" patternUnits="userSpaceOnUse" patternContentUnits="userSpaceOnUse" x="0" y="0" width="2.98883" height="2.98883">
<clipPath id="clip_5">
<path d="M -.99628 -.99628 L 3.9851 -.99628 L 3.9851 3.9851 L -.99628 3.9851 Z"/>
</clipPath>
<g clip-path="url(#clip_5)">
<g transform="matrix(1,0,0,-1,153,732)">
<use x="0" y="0" xlink:href="#pattern_tile_4"/>
<use x="0" y="-2.98883" xlink:href="#pattern_tile_4"/>
<use x="-2.98883" y="0" xlink:href="#pattern_tile_4"/>
<use x="-2.98883" y="-2.98883" xlink:href="#pattern_tile_4"/>
</g>
</g>
</pattern>
<path id="font_6_2" d="M.30299378 .3157959H.47299195C.61499026 .3157959 .7539978 .41973878 .7539978 .53167727 .7539978 .6086273 .6879883 .6826172 .5569916 .6826172H.23298645C.21398926 .6826172 .20298767 .6826172 .20298767 .66360476 .20298767 .6516113 .21199036 .6516113 .23199463 .6516113 .24499512 .6516113 .2630005 .65060427 .2749939 .6496124 .29100038 .6476135 .29699708 .64460757 .29699708 .6336212 .29699708 .6296234 .29599 .62661746 .29299928 .614624L.15899658 .07795715C.14898682 .038986207 .14698792 .0309906 .067993167 .0309906 .050994874 .0309906 .039993287 .0309906 .039993287 .011993408 .039993287 0 .051986696 0 .054992677 0 .08299255 0 .1539917 .0029907227 .18199158 .0029907227 .20298767 .0029907227 .22499085 .0019989014 .24598694 .0019989014 .2679901 .0019989014 .2899933 0 .31098939 0 .31799317 0 .33099366 0 .33099366 .019989014 .33099366 .0309906 .32199098 .0309906 .30299378 .0309906 .2659912 .0309906 .23799134 .0309906 .23799134 .048980714 .23799134 .054977418 .23999024 .05996704 .24099732 .065963748L.30299378 .3157959M.375 .6136322C.38398744 .64860537 .38598634 .6516113 .42900086 .6516113H.5249939C.60798647 .6516113 .6609955 .62461856 .6609955 .55566409 .6609955 .5166931 .6409912 .43074037 .60198977 .39476014 .5519867 .34977723 .49198915 .34179688 .44799806 .34179688H.30699159L.375 .6136322Z"/>
<path id="font_6_1" d="M.15899658 .07795715C.14898682 .038986207 .14698792 .0309906 .067993167 .0309906 .050994874 .0309906 .039993287 .0309906 .039993287 .011993408 .039993287 0 .04899597 0 .067993167 0H.39898683C.6069946 0 .80400088 .21087647 .80400088 .42974855 .80400088 .5706482 .71899417 .6826172 .56900027 .6826172H.23298645C.21398926 .6826172 .20298767 .6826172 .20298767 .66360476 .20298767 .6516113 .21199036 .6516113 .23199463 .6516113 .24499512 .6516113 .2630005 .65060427 .2749939 .6496124 .29100038 .6476135 .29699708 .64460757 .29699708 .6336212 .29699708 .6296234 .29599 .62661746 .29299928 .614624L.15899658 .07795715M.375 .6136322C.38398744 .64860537 .38598634 .6516113 .42900086 .6516113H.5359955C.6339874 .6516113 .71699526 .5986328 .71699526 .46672059 .71699526 .41775514 .69699099 .25386048 .6119995 .1439209 .58299258 .10694885 .5039978 .0309906 .3809967 .0309906H.2679901C.2539978 .0309906 .2519989 .0309906 .24598694 .03199768 .23599243 .032989503 .23298645 .033996583 .23298645 .041992189 .23298645 .04498291 .23298645 .04698181 .23799134 .064971927L.375 .6136322Z"/>
<path id="font_7_1" d="M.43798829 .38304139C.4019928 .37702943 .3869934 .34902955 .3869934 .32702638 .3869934 .30003358 .4079895 .29003907 .42599488 .29003907 .44799806 .29003907 .48298646 .30603028 .48298646 .35403443 .48298646 .4223938 .40499879 .44140626 .35099793 .44140626 .20098877 .44140626 .06199646 .3030243 .06199646 .16412354 .06199646 .078186038 .12199402-.009765625 .24699402-.009765625 .41600038-.009765625 .49499513 .08917236 .49499513 .10316467 .49499513 .10916138 .48599244 .120147708 .47799684 .120147708 .47200013 .120147708 .46998597 .1181488 .46199037 .11016846 .38398744 .018234253 .2669983 .018234253 .24899292 .018234253 .1769867 .018234253 .14498902 .06718445 .14498902 .12915039 .14498902 .15812683 .15899658 .26704408 .21099854 .33602906 .24899292 .3850708 .30099488 .4133911 .35099793 .4133911 .36499024 .4133911 .41299439 .41137696 .43798829 .38304139Z"/>
<path id="font_8_1" d="M.6769867 .16200257H.6519928C.6469879 .13600159 .6429901 .11299133 .6339874 .08898926 .6289978 .07299805 .6259918 .06498718 .56799319 .06498718H.48799134C.5009918 .1210022 .5319977 .16900635 .57699587 .23501587 .6239929 .306015 .6649933 .37503053 .6649933 .45404054 .6649933 .59306338 .5299988 .7050781 .36099244 .7050781 .18899536 .7050781 .055999757 .5910492 .055999757 .45404054 .055999757 .37503053 .09700012 .306015 .14399719 .23501587 .18798828 .16900635 .21998596 .1210022 .23298645 .06498718H.15299988C.09498596 .06498718 .09199524 .07299805 .08699036 .08799744 .07899475 .11099243 .07398987 .13700867 .068984989 .16200257H.04399109L.07699585 0H.23699951C.25898744 0 .2619934 0 .2619934 .020996094 .2619934 .09098816 .23098755 .17900086 .20799256 .24301148 .18699646 .3010254 .15899658 .3800354 .15899658 .45503236 .15899658 .6150665 .2689972 .68307498 .3600006 .68307498 .45599366 .68307498 .56199648 .61105349 .56199648 .45503236 .56199648 .3800354 .5349884 .3040161 .5059967 .22201538 .4909973 .18000794 .45899964 .08999634 .45899964 .020996094 .45899964 0 .46199037 0 .4850006 0H.6439972L.6769867 .16200257Z"/>
</defs>
<g clip-path="url(#clip_1)">
<path transform="matrix(1.00002,0,0,-1.00002,87.13637,89.36455)" d="M56.69362 0C56.69362 31.31142 31.31142 56.69362 0 56.69362-31.31142 56.69362-56.69362 31.31142-56.69362 0-56.69362-31.31142-31.31142-56.69362 0-56.69362 31.31142-56.69362 56.69362-31.31142 56.69362 0ZM0 0" fill="#bfbfbf"/>
</g>
<g clip-path="url(#clip_2)">
<g clip-path="url(#clip_3)">
<rect transform="matrix(1,0,0,-1,-153,732)" fill="url(#pattern_4)" x="183.44162" y="585.9407" width="113.389499" height="113.38953"/>
</g>
</g>
<path transform="matrix(1.00002,0,0,-1.00002,87.13637,89.36455)" stroke-width=".3985" stroke-linecap="butt" stroke-miterlimit="10" stroke-linejoin="miter" fill="none" stroke="#000000" d="M56.69362 0C56.69362 31.31142 31.31142 56.69362 0 56.69362-31.31142 56.69362-56.69362 31.31142-56.69362 0-56.69362-31.31142-31.31142-56.69362 0-56.69362 31.31142-56.69362 56.69362-31.31142 56.69362 0ZM0 0"/>
<use data-text="P" xlink:href="#font_6_2" transform="matrix(9.962799,0,0,-9.962799,154.11472,92.768619)"/>
<path transform="matrix(1.00002,0,0,-1.00002,87.13637,89.36455)" stroke-width=".3985" stroke-linecap="butt" stroke-miterlimit="10" stroke-linejoin="miter" fill="none" stroke="#000000" d="M-14.17339 85.04042V-85.04042"/>
<use data-text="D" xlink:href="#font_6_1" transform="matrix(9.962799,0,0,-9.962799,40.352434,191.98459)"/>
<use data-text="D" xlink:href="#font_6_1" transform="matrix(9.962799,0,0,-9.962799,123.3651,191.98459)"/>
<use data-text="c" xlink:href="#font_7_1" transform="matrix(6.97394,0,0,-6.97394,131.89026,188.36853)"/>
<path transform="matrix(1.00002,0,0,-1.00002,87.13637,89.36455)" stroke-width=".3985" stroke-linecap="butt" stroke-miterlimit="10" stroke-linejoin="miter" fill="none" stroke="#000000" d="M-85.04042-85.04042V85.04042H113.38724V-85.04042ZM113.38724 85.04042"/>
<use data-text="&#x2126;" xlink:href="#font_8_1" transform="matrix(9.962799,0,0,-9.962799,204.04572,7.7269136)"/>
</svg>
